<svg width="20" height="20" viewBox="0 0 20 20" fill="none" xmlns="http://www.w3.org/2000/svg">
<path d="M17.1406 10.9404C17.1806 10.6404 17.2006 10.3304 17.2006 10.0004C17.2006 9.68039 17.1806 9.36039 17.1306 9.06039L19.1606 7.48039C19.3406 7.34039 19.3906 7.07039 19.2806 6.87039L17.3606 3.55039C17.2406 3.33039 16.9906 3.26039 16.7706 3.33039L14.3806 4.29039C13.8806 3.91039 13.3506 3.59039 12.7606 3.35039L12.4006 0.81039C12.3606 0.57039 12.1606 0.400391 11.9206 0.400391H8.0806C7.8406 0.400391 7.6506 0.57039 7.6106 0.81039L7.2506 3.35039C6.6606 3.59039 6.1206 3.92039 5.6306 4.29039L3.2406 3.33039C3.0206 3.25039 2.7706 3.33039 2.6506 3.55039L0.740598 6.87039C0.620598 7.08039 0.660598 7.34039 0.860598 7.48039L2.8906 9.06039C2.8406 9.36039 2.8006 9.69039 2.8006 10.0004C2.8006 10.3104 2.8206 10.6404 2.8706 10.9404L0.840598 12.5204C0.660598 12.6604 0.610598 12.9304 0.720598 13.1304L2.6406 16.4504C2.7606 16.6704 3.0106 16.7404 3.2306 16.6704L5.6206 15.7104C6.1206 16.0904 6.6506 16.4104 7.2406 16.6504L7.6006 19.1904C7.6506 19.4304 7.8406 19.6004 8.0806 19.6004H11.9206C12.1606 19.6004 12.3606 19.4304 12.3906 19.1904L12.7506 16.6504C13.3406 16.4104 13.8806 16.0904 14.3706 15.7104L16.7606 16.6704C16.9806 16.7504 17.2306 16.6704 17.3506 16.4504L19.2706 13.1304C19.3906 12.9104 19.3406 12.6604 19.1506 12.5204L17.1406 10.9404ZM10.0006 13.6004C8.0206 13.6004 6.4006 11.9804 6.4006 10.0004C6.4006 8.02039 8.0206 6.40039 10.0006 6.40039C11.9806 6.40039 13.6006 8.02039 13.6006 10.0004C13.6006 11.9804 11.9806 13.6004 10.0006 13.6004Z" fill="#121212"/>
</svg>